<mxfile host="app.diagrams.net" modified="2023-07-27T14:23:15.560Z" agent="Mozilla/5.0 (Windows NT 10.0; Win64; x64) AppleWebKit/537.36 (KHTML, like Gecko) Chrome/115.0.0.0 Safari/537.36 Edg/115.0.1901.183" etag="FF_a_822PD3uGg_rVz0C" version="21.6.5" type="github">
  <diagram name="Page-1" id="9fcsCXDwoRXSFa8pRCCa">
    <mxGraphModel dx="1660" dy="1115" grid="0" gridSize="10" guides="1" tooltips="1" connect="1" arrows="1" fold="1" page="1" pageScale="1" pageWidth="850" pageHeight="1100" math="0" shadow="0">
      <root>
        <mxCell id="0" />
        <mxCell id="1" parent="0" />
        <mxCell id="QrOYO3pnGJtoghmpIy-n-8" value="Title" style="text;strokeColor=none;fillColor=none;html=1;fontSize=24;fontStyle=1;verticalAlign=middle;align=center;" parent="1" vertex="1">
          <mxGeometry x="59" y="40" width="100" height="40" as="geometry" />
        </mxCell>
        <UserObject label="Link" link="https://www.draw.io" id="QrOYO3pnGJtoghmpIy-n-9">
          <mxCell style="text;html=1;strokeColor=none;fillColor=none;whiteSpace=wrap;align=center;verticalAlign=middle;fontColor=#0000EE;fontStyle=4;" parent="1" vertex="1">
            <mxGeometry x="573" y="47" width="60" height="40" as="geometry" />
          </mxCell>
        </UserObject>
        <UserObject label="Link" link="https://www.draw.io" id="QrOYO3pnGJtoghmpIy-n-10">
          <mxCell style="text;html=1;strokeColor=none;fillColor=none;whiteSpace=wrap;align=center;verticalAlign=middle;fontColor=#0000EE;fontStyle=4;" parent="1" vertex="1">
            <mxGeometry x="655" y="47" width="60" height="40" as="geometry" />
          </mxCell>
        </UserObject>
        <UserObject label="Link" link="https://www.draw.io" id="QrOYO3pnGJtoghmpIy-n-11">
          <mxCell style="text;html=1;strokeColor=none;fillColor=none;whiteSpace=wrap;align=center;verticalAlign=middle;fontColor=#0000EE;fontStyle=4;" parent="1" vertex="1">
            <mxGeometry x="749" y="47" width="60" height="40" as="geometry" />
          </mxCell>
        </UserObject>
        <mxCell id="QrOYO3pnGJtoghmpIy-n-13" value="img" style="rounded=0;whiteSpace=wrap;html=1;movable=1;resizable=1;rotatable=1;deletable=1;editable=1;locked=0;connectable=1;" parent="1" vertex="1">
          <mxGeometry x="135" y="159" width="543" height="171" as="geometry" />
        </mxCell>
        <mxCell id="QrOYO3pnGJtoghmpIy-n-14" value="&lt;h1&gt;Heading&lt;/h1&gt;&lt;p&gt;Lorem ipsum dolor sit amet, consectetur adipisicing elit, sed do eiusmod tempor incididunt ut labore et dolore magna aliqua.&lt;/p&gt;" style="text;html=1;strokeColor=none;fillColor=none;spacing=5;spacingTop=-20;whiteSpace=wrap;overflow=hidden;rounded=0;" parent="1" vertex="1">
          <mxGeometry x="128" y="383" width="190" height="120" as="geometry" />
        </mxCell>
        <mxCell id="QrOYO3pnGJtoghmpIy-n-15" value="&lt;h1&gt;Heading&lt;/h1&gt;&lt;p&gt;Lorem ipsum dolor sit amet, consectetur adipisicing elit, sed do eiusmod tempor incididunt ut labore et dolore magna aliqua.&lt;/p&gt;" style="text;html=1;strokeColor=none;fillColor=none;spacing=5;spacingTop=-20;whiteSpace=wrap;overflow=hidden;rounded=0;" parent="1" vertex="1">
          <mxGeometry x="123" y="537" width="190" height="120" as="geometry" />
        </mxCell>
        <mxCell id="QrOYO3pnGJtoghmpIy-n-16" value="&lt;h1&gt;Heading&lt;/h1&gt;&lt;p&gt;Lorem ipsum dolor sit amet, consectetur adipisicing elit, sed do eiusmod tempor incididunt ut labore et dolore magna aliqua.&lt;/p&gt;" style="text;html=1;strokeColor=none;fillColor=none;spacing=5;spacingTop=-20;whiteSpace=wrap;overflow=hidden;rounded=0;" parent="1" vertex="1">
          <mxGeometry x="120" y="698" width="190" height="120" as="geometry" />
        </mxCell>
        <mxCell id="QrOYO3pnGJtoghmpIy-n-18" value="" style="rounded=0;whiteSpace=wrap;html=1;" parent="1" vertex="1">
          <mxGeometry x="576" y="391" width="145" height="86" as="geometry" />
        </mxCell>
        <mxCell id="QrOYO3pnGJtoghmpIy-n-21" value="" style="rounded=0;whiteSpace=wrap;html=1;" parent="1" vertex="1">
          <mxGeometry x="570" y="543" width="158" height="77" as="geometry" />
        </mxCell>
        <mxCell id="QrOYO3pnGJtoghmpIy-n-22" value="" style="rounded=0;whiteSpace=wrap;html=1;" parent="1" vertex="1">
          <mxGeometry x="570" y="695" width="158" height="98" as="geometry" />
        </mxCell>
        <mxCell id="QrOYO3pnGJtoghmpIy-n-24" value="" style="line;strokeWidth=2;html=1;" parent="1" vertex="1">
          <mxGeometry x="76" y="515" width="740" height="10" as="geometry" />
        </mxCell>
        <mxCell id="QrOYO3pnGJtoghmpIy-n-26" value="" style="line;strokeWidth=2;html=1;" parent="1" vertex="1">
          <mxGeometry x="66" y="828" width="740" height="10" as="geometry" />
        </mxCell>
        <mxCell id="QrOYO3pnGJtoghmpIy-n-27" value="" style="line;strokeWidth=2;html=1;" parent="1" vertex="1">
          <mxGeometry x="66" y="660" width="740" height="10" as="geometry" />
        </mxCell>
        <UserObject label="Link" link="https://www.draw.io" id="QrOYO3pnGJtoghmpIy-n-28">
          <mxCell style="text;html=1;strokeColor=none;fillColor=none;whiteSpace=wrap;align=center;verticalAlign=middle;fontColor=#0000EE;fontStyle=4;" parent="1" vertex="1">
            <mxGeometry x="176" y="1021" width="60" height="40" as="geometry" />
          </mxCell>
        </UserObject>
        <UserObject label="Link" link="https://www.draw.io" id="QrOYO3pnGJtoghmpIy-n-29">
          <mxCell style="text;html=1;strokeColor=none;fillColor=none;whiteSpace=wrap;align=center;verticalAlign=middle;fontColor=#0000EE;fontStyle=4;" parent="1" vertex="1">
            <mxGeometry x="391" y="1021" width="60" height="40" as="geometry" />
          </mxCell>
        </UserObject>
        <UserObject label="Link" link="https://www.draw.io" id="QrOYO3pnGJtoghmpIy-n-30">
          <mxCell style="text;html=1;strokeColor=none;fillColor=none;whiteSpace=wrap;align=center;verticalAlign=middle;fontColor=#0000EE;fontStyle=4;" parent="1" vertex="1">
            <mxGeometry x="606" y="1024" width="60" height="40" as="geometry" />
          </mxCell>
        </UserObject>
      </root>
    </mxGraphModel>
  </diagram>
</mxfile>
